<svg id="svg" xmlns="http://www.w3.org/2000/svg" xmlns:xlink="http://www.w3.org/1999/xlink" width="400" height="220" viewBox="0 160 400 220"><g id="svgg"><path id="path0" d="M184.800 164.633 C 94.179 167.862,17.211 203.563,2.769 249.067 C -22.277 327.976,128.579 389.741,274.933 360.498 C 365.845 342.333,417.964 290.601,394.184 242.133 C 370.114 193.078,283.739 161.108,184.800 164.633 M210.667 169.822 C 223.561 172.138,236.543 181.291,245.045 194.061 C 246.963 196.943,248.533 199.519,248.533 199.784 C 248.533 200.069,230.092 200.215,203.467 200.139 C 178.680 200.069,158.409 199.829,158.419 199.606 C 158.470 198.552,163.106 191.648,166.192 188.032 C 178.331 173.804,194.950 167.000,210.667 169.822 M178.133 170.883 C 178.133 171.002,176.873 172.000,175.333 173.101 C 167.960 178.370,160.450 186.405,154.803 195.065 C 153.225 197.485,151.485 199.705,150.936 199.999 C 149.835 200.588,117.315 200.646,108.800 200.074 L 103.733 199.733 109.333 195.828 C 126.538 183.829,145.654 176.313,169.333 172.236 C 174.027 171.428,177.927 170.744,178.000 170.717 C 178.073 170.689,178.133 170.764,178.133 170.883 M241.067 173.692 C 260.625 177.634,278.353 185.244,294.133 196.472 L 299.467 200.267 278.400 200.415 C 253.392 200.591,255.749 200.993,252.592 196.010 C 247.735 188.343,240.772 180.563,233.614 174.805 L 229.628 171.599 232.014 171.974 C 233.326 172.180,237.400 172.954,241.067 173.692 M132.508 177.136 C 120.288 183.434,112.924 187.595,106.133 192.036 C 92.955 200.656,88.135 201.608,64.876 200.185 L 59.186 199.837 60.926 198.771 C 73.294 191.193,101.935 181.373,126.667 176.232 C 138.295 173.815,138.800 173.893,132.508 177.136 M272.860 176.225 C 295.427 180.822,314.959 187.257,332.000 195.710 L 341.600 200.472 325.067 200.369 L 308.533 200.267 304.000 196.736 C 294.993 189.722,284.246 183.484,271.954 178.137 C 263.391 174.411,263.440 174.306,272.860 176.225 M352.800 207.033 C 356.460 208.217,360.143 210.505,365.867 215.149 C 402.732 245.060,404.957 282.154,371.634 311.274 C 356.975 324.083,361.144 322.667,338.093 322.667 C 323.319 322.667,319.407 322.526,319.610 322.000 C 319.751 321.633,323.132 316.367,327.123 310.296 C 335.449 297.633,335.247 298.083,332.847 297.561 C 330.307 297.010,330.105 297.152,326.917 301.760 C 318.660 313.692,312.471 321.517,310.842 322.085 C 307.895 323.113,260.800 322.877,260.800 321.835 C 260.800 321.377,262.360 316.027,264.267 309.946 C 268.258 297.218,268.158 297.822,266.344 297.367 C 263.740 296.713,262.838 297.981,260.432 305.669 C 256.782 317.328,255.093 321.356,253.558 322.055 C 251.031 323.207,153.999 322.897,152.582 321.733 C 151.810 321.099,150.237 317.170,147.667 309.455 C 144.942 301.277,143.596 297.955,142.846 297.553 C 141.489 296.827,138.499 297.460,138.858 298.397 C 139.618 300.376,146.133 321.632,146.133 322.131 C 146.133 323.096,93.502 322.623,91.584 321.640 C 90.091 320.875,84.290 313.479,77.647 303.869 C 73.179 297.406,71.571 296.173,69.400 297.548 C 68.256 298.272,73.416 307.617,79.225 315.338 C 82.422 319.588,83.927 322.003,83.535 322.258 C 81.944 323.294,43.082 322.705,40.835 321.611 C 34.364 318.459,20.513 305.341,15.157 297.292 C -4.862 267.206,4.673 235.418,41.398 209.807 L 46.666 206.133 61.333 205.979 C 69.400 205.894,78.603 205.894,81.784 205.979 L 87.569 206.133 79.726 216.509 C 70.398 228.849,70.794 228.059,73.690 228.548 C 76.334 228.995,74.770 230.489,86.819 216.007 C 90.843 211.171,94.772 206.908,95.551 206.535 C 96.649 206.009,102.707 205.887,122.557 205.995 L 148.148 206.133 144.212 217.038 C 140.052 228.566,140.031 228.775,143.054 228.792 C 144.902 228.802,145.580 227.756,147.883 221.333 C 151.014 212.602,153.119 208.037,154.522 206.933 C 156.504 205.374,249.388 205.250,251.914 206.803 C 253.579 207.826,255.230 211.266,258.763 221.067 C 261.066 227.458,261.936 228.800,263.772 228.800 C 266.702 228.800,266.701 228.790,262.582 217.220 C 260.428 211.171,258.667 206.142,258.667 206.044 C 258.667 205.246,305.535 205.988,307.330 206.814 C 309.519 207.822,313.290 211.886,320.919 221.459 C 326.069 227.921,327.064 228.806,329.165 228.792 C 332.359 228.771,332.082 228.171,323.793 217.145 C 319.360 211.250,315.733 206.305,315.733 206.156 C 315.733 204.914,348.660 205.693,352.800 207.033 M57.422 243.022 C 56.583 243.861,57.031 278.645,57.897 279.881 L 58.727 281.067 80.830 281.067 L 102.933 281.067 102.933 277.600 L 102.933 274.133 84.533 274.133 L 66.133 274.133 66.133 258.400 L 66.133 242.667 61.956 242.667 C 59.658 242.667,57.618 242.827,57.422 243.022 M170.267 243.217 L 169.067 243.699 169.067 262.383 L 169.067 281.067 173.589 281.067 L 178.112 281.067 178.256 270.115 L 178.400 259.164 185.845 269.340 C 197.812 285.700,197.763 285.701,210.221 269.001 L 217.333 259.467 217.600 270.133 L 217.867 280.800 222.267 280.955 L 226.667 281.110 226.667 262.188 L 226.667 243.265 224.316 242.913 C 218.982 242.113,219.754 241.393,206.400 259.623 C 201.853 265.830,198.013 270.909,197.867 270.909 C 197.720 270.910,193.280 265.008,188.000 257.794 C 176.328 241.846,175.457 241.130,170.267 243.217 M240.715 243.177 C 234.154 244.741,233.333 246.820,233.333 261.884 C 233.333 281.862,231.836 280.800,260.000 280.800 C 288.179 280.800,286.577 281.797,286.835 264.096 C 287.156 242.154,287.760 242.635,260.037 242.721 C 250.336 242.751,241.642 242.957,240.715 243.177 M292.667 243.004 C 291.801 243.258,291.733 244.609,291.733 261.556 C 291.733 283.088,291.438 282.018,297.165 281.251 L 300.533 280.800 300.676 267.867 C 300.755 260.753,300.946 254.933,301.100 254.933 C 301.255 254.933,307.880 260.153,315.822 266.533 C 334.760 281.746,333.231 280.747,337.950 280.985 L 341.867 281.183 341.867 262.192 L 341.867 243.200 337.600 243.200 L 333.333 243.200 333.333 256.000 C 333.333 263.040,333.149 268.800,332.924 268.800 C 332.420 268.800,315.880 255.921,308.267 249.601 C 300.820 243.418,296.898 241.760,292.667 243.004 M108.803 257.733 C 108.808 281.909,107.834 281.066,135.733 281.051 C 163.991 281.036,162.274 282.438,162.667 259.066 L 162.933 243.199 158.291 243.199 L 153.649 243.200 153.491 257.648 L 153.333 272.096 152.074 273.115 C 150.676 274.246,123.167 274.703,120.374 273.641 C 118.314 272.857,118.184 271.966,117.981 257.200 L 117.788 243.200 113.294 243.200 L 108.800 243.200 108.803 257.733 M265.204 256.455 C 270.585 266.779,270.611 269.344,265.375 273.337 C 259.094 278.128,249.933 272.255,251.410 264.384 C 251.688 262.899,256.475 253.645,258.987 249.733 C 260.329 247.645,260.979 248.348,265.204 256.455 M89.904 328.548 C 90.696 328.849,93.172 330.613,95.406 332.469 C 106.380 341.587,119.786 349.493,134.000 355.232 C 137.153 356.506,139.733 357.707,139.733 357.901 C 139.733 359.261,108.246 351.935,93.405 347.123 C 77.855 342.081,51.093 330.001,52.048 328.455 C 52.459 327.791,88.145 327.879,89.904 328.548 M148.417 328.717 C 149.684 329.246,150.870 330.638,152.939 334.025 C 158.690 343.436,167.904 353.797,175.066 358.906 C 178.395 361.281,178.299 361.305,170.472 360.032 C 144.661 355.837,122.592 346.765,103.333 332.432 C 100.767 330.522,98.667 328.744,98.667 328.480 C 98.667 327.643,146.391 327.870,148.417 328.717 M304.220 328.457 C 304.375 328.708,302.325 330.540,299.664 332.527 C 281.350 346.203,260.518 354.966,235.846 359.371 C 229.542 360.497,229.465 360.440,233.428 357.600 C 238.423 354.021,246.383 345.201,251.077 338.044 C 253.449 334.427,256.107 330.687,256.983 329.733 L 258.575 328.000 281.256 328.000 C 293.731 328.000,304.064 328.206,304.220 328.457 M344.224 328.466 L 347.915 328.800 337.824 333.953 C 318.678 343.729,299.137 350.442,275.258 355.444 C 271.624 356.205,268.564 356.741,268.458 356.635 C 268.352 356.530,273.365 353.615,279.599 350.158 C 297.057 340.479,301.437 337.751,306.371 333.489 C 308.881 331.322,311.714 329.209,312.667 328.795 C 314.507 327.995,336.484 327.766,344.224 328.466 M250.667 328.902 C 250.667 331.071,241.731 343.248,236.421 348.316 C 210.497 373.056,177.157 365.802,157.148 331.067 L 155.688 328.533 203.178 328.533 C 229.297 328.533,250.667 328.699,250.667 328.902 " stroke="none" fill="#afcbd6" fill-rule="evenodd"></path></g></svg>