<svg width="64" height="64" version="1.0" xmlns="http://www.w3.org/2000/svg"
 viewBox="0 0 756.000000 409.000000"
 preserveAspectRatio="xMidYMid meet">

  <!-- Background rectangle -->
  <rect width="100%" height="100%" fill="#afcbd6" />

<g transform="translate(0.000000,409.000000) scale(0.100000,-0.100000)"
fill="#0e1a26" stroke="none">
<path d="M0 2045 l0 -2045 3780 0 3780 0 0 2045 0 2045 -3780 0 -3780 0 0
-2045z m4075 1895 c427 -20 763 -63 1140 -145 120 -26 328 -78 375 -95 14 -4
72 -23 130 -40 228 -69 557 -211 755 -325 486 -280 788 -613 897 -990 20 -69
23 -103 23 -250 0 -148 -3 -180 -23 -250 -120 -415 -498 -797 -1067 -1075
-589 -289 -1307 -461 -2130 -511 -235 -14 -797 -6 -1015 16 -757 73 -1342 223
-1877 480 -480 230 -823 524 -1003 857 -85 158 -123 310 -123 493 0 163 29
280 106 440 131 268 408 544 750 750 756 452 1920 697 3062 645z"/>
<path d="M3745 3854 c-11 -2 -51 -12 -90 -21 -153 -34 -328 -143 -457 -282
-63 -68 -171 -212 -184 -244 -6 -16 47 -17 830 -17 l837 0 -42 63 c-176 260
-381 423 -609 481 -64 17 -246 30 -285 20z"/>
<path d="M3380 3833 c-448 -57 -880 -209 -1210 -426 -58 -38 -118 -80 -133
-93 l-29 -24 446 0 445 0 77 118 c91 138 251 303 359 372 39 24 72 45 74 47 9
6 -5 9 -29 6z"/>
<path d="M4350 3779 c130 -88 311 -286 402 -442 l28 -47 410 0 c250 0 409 4
405 9 -3 5 -59 46 -125 90 -281 187 -621 325 -987 401 -199 41 -211 40 -133
-11z"/>
<path d="M2620 3764 c-178 -33 -425 -89 -550 -124 -310 -88 -640 -215 -830
-319 l-55 -31 340 0 340 0 75 61 c169 136 459 297 700 389 110 41 105 47 -20
24z"/>
<path d="M4985 3736 c243 -94 515 -247 697 -392 l67 -54 313 1 313 1 -130 63
c-324 159 -725 290 -1145 375 -173 36 -195 37 -115 6z"/>
<path d="M914 3128 c-386 -267 -603 -556 -659 -875 -46 -263 27 -531 209 -773
77 -102 240 -262 354 -348 l83 -62 396 0 395 0 -34 42 c-109 134 -258 368
-258 405 0 9 14 13 43 13 41 0 43 -1 72 -58 48 -93 138 -222 220 -315 l76 -87
499 0 c296 0 500 4 500 9 0 5 -15 49 -33 98 -39 100 -70 200 -91 291 l-14 62
44 0 c43 0 43 -1 54 -42 34 -133 70 -244 117 -355 l26 -63 928 0 927 0 32 77
c49 117 85 231 114 356 6 25 10 27 52 27 38 0 45 -3 40 -17 -3 -10 -15 -56
-26 -103 -12 -47 -42 -140 -66 -207 -24 -67 -44 -124 -44 -127 0 -3 209 -6
463 -6 l464 0 60 63 c78 81 159 193 224 306 l52 91 43 0 c24 0 44 -2 44 -5 0
-29 -132 -243 -243 -351 -41 -52 -74 -97 -74 -99 0 -3 162 -5 361 -5 416 0
351 -15 525 126 257 210 428 461 479 704 44 211 15 431 -81 622 -106 211 -327
443 -586 617 l-76 51 -347 0 -346 0 81 -92 c86 -99 212 -279 214 -306 1 -12
-9 -17 -36 -19 -42 -4 -39 -7 -117 107 -65 94 -216 268 -255 293 -23 15 -73
17 -470 17 l-445 0 35 -77 c45 -99 118 -319 109 -332 -3 -6 -22 -9 -42 -8
l-36 2 -43 125 c-24 69 -60 162 -80 208 l-37 82 -892 0 c-702 0 -895 -3 -902
-12 -20 -27 -79 -168 -118 -283 l-41 -120 -36 -2 c-21 -1 -40 2 -43 7 -7 11
73 251 114 343 l30 67 -483 0 -483 0 -89 -92 c-95 -99 -158 -177 -218 -270
-34 -54 -39 -58 -76 -58 -21 0 -41 4 -44 8 -6 10 99 176 157 247 22 28 65 76
96 108 l55 57 -380 0 -381 0 -89 -62z m446 -893 l0 -285 330 0 330 0 0 -65 0
-65 -412 2 -413 3 -3 335 c-1 184 0 341 3 347 3 9 29 13 85 13 l80 0 0 -285z
m930 25 l0 -261 25 -24 24 -25 276 0 276 0 24 25 25 24 0 261 0 260 80 0 c77
0 80 -1 86 -25 3 -14 5 -143 3 -288 l-4 -263 -28 -42 c-50 -76 -54 -77 -462
-77 l-360 0 -42 24 c-29 16 -50 39 -63 66 -19 38 -20 62 -20 323 l0 282 80 0
80 0 0 -260z m1168 128 c53 -73 138 -188 187 -256 49 -67 92 -121 97 -120 7 3
271 356 346 462 l32 47 73 -3 72 -3 0 -345 0 -345 -80 0 -80 0 -5 200 -5 200
-87 -120 c-48 -66 -115 -157 -148 -202 l-60 -83 -59 0 -59 0 -148 202 -149
203 -5 -200 -5 -200 -77 -3 -78 -3 0 351 0 350 70 0 70 0 98 -132z m1775 121
c53 -15 105 -63 118 -111 6 -25 9 -121 7 -252 l-3 -213 -29 -37 c-52 -69 -62
-70 -423 -74 -369 -4 -419 2 -469 52 -18 18 -37 50 -43 71 -14 52 -14 393 0
450 13 51 51 91 105 110 49 18 677 21 737 4z m369 3 c2 -4 99 -84 217 -177
117 -94 248 -198 290 -232 42 -35 79 -63 84 -63 4 0 7 108 7 240 l0 240 80 0
80 0 -2 -347 -3 -348 -62 -3 c-35 -2 -71 2 -82 7 -10 6 -149 114 -307 241
-159 126 -291 230 -294 230 -3 0 -4 -98 -2 -217 2 -120 0 -228 -3 -241 -5 -22
-10 -23 -83 -20 l-77 3 -3 348 -2 347 79 0 c44 0 81 -3 83 -8z"/>
<path d="M4837 2373 c-74 -118 -127 -231 -127 -272 0 -86 55 -154 137 -167 56
-9 105 10 147 56 37 41 53 103 39 150 -14 47 -147 270 -160 270 -7 0 -23 -17
-36 -37z"/>
<path d="M1088 957 c15 -17 291 -155 422 -210 296 -125 632 -223 1014 -296
196 -38 223 -38 126 -2 -294 111 -579 277 -785 457 l-73 64 -357 0 c-291 0
-355 -2 -347 -13z"/>
<path d="M1930 967 c0 -9 144 -117 243 -181 208 -136 453 -246 712 -321 160
-45 360 -88 470 -100 l60 -6 -50 32 c-168 107 -346 303 -460 507 l-40 72 -467
0 c-258 0 -468 -1 -468 -3z"/>
<path d="M2970 962 c0 -17 141 -221 198 -286 141 -162 288 -259 469 -311 115
-34 269 -36 388 -5 211 53 412 201 571 420 47 64 114 172 114 183 0 4 -391 7
-870 7 -478 0 -870 -4 -870 -8z"/>
<path d="M4775 898 c-113 -203 -278 -387 -437 -491 -27 -16 -46 -32 -44 -34
11 -11 316 55 471 102 328 100 672 280 880 460 l40 34 -435 0 -435 1 -40 -72z"/>
<path d="M5784 939 c-41 -44 -173 -145 -283 -219 -153 -102 -445 -246 -555
-274 -15 -4 -26 -9 -24 -12 11 -11 426 79 607 132 128 37 332 106 456 155 113
44 444 205 480 233 18 14 -10 15 -316 16 l-335 0 -30 -31z"/>
</g>
</svg>